# xmcd CD database file
#
# Track frame offsets:
#	150
#	14630
#	26007
#	40182
#	53975
#	67602
#	79667
#	94147
#	104497
#	115495
#	126845
#	138315
#	148962
#	161712
#	174620
#	185307
#	196482
#	208422
#	220252
#	231510
#
# Disc length: 3259 seconds
#
# Revision: 0
# Processed by: cddbd v1.5PL3 Copyright (c) Steve Scherf et al.
# Submitted via: CDex 1.51
#
DISCID=320cb914
DTITLE=Ritmo Y Juventud - Á Bailar Como En Los Sesenta
DYEAR=1956
DGENRE=Merengue
TTITLE0=Las Clases De Cha Cha Cha
TTITLE1=Ay Que Rico El Mambo
TTITLE2=Apambichao
TTITLE3=Amor Sin Esperanza
TTITLE4=Cha Cha Cha De Las Secretarias
TTITLE5=La Pachanga
TTITLE6=Los Marcianos
TTITLE7=Cosita Linda
TTITLE8=Chiquita Bom Bon
TTITLE9=La Chacacha Del Tren
TTITLE10=La Basura
TTITLE11=La Matraca
TTITLE12=Cachita
TTITLE13=Cuando Tú Seas Mía
TTITLE14=Los Cadetes
TTITLE15=Disco, Tócame Aquella Pieza
TTITLE16=Tu Rica Boca
TTITLE17=El Fiador
TTITLE18=El Negrito Del Batey
TTITLE19=Ahí Viene La Plaga
EXTD=YEAR: 1956
EXTT0=
EXTT1=
EXTT2=
EXTT3=
EXTT4=
EXTT5=
EXTT6=
EXTT7=
EXTT8=
EXTT9=
EXTT10=
EXTT11=
EXTT12=
EXTT13=
EXTT14=
EXTT15=
EXTT16=
EXTT17=
EXTT18=
EXTT19=
PLAYORDER=
